<svg width="97" height="31" viewBox="0 0 97 31" fill="none" xmlns="http://www.w3.org/2000/svg">
<path d="M0.26 17.4C0.26 14.928 0.812 12.72 1.916 10.776C3.044 8.808 4.568 7.284 6.488 6.204C8.432 5.1 10.604 4.548 13.004 4.548C15.812 4.548 18.272 5.268 20.384 6.708C22.496 8.148 23.972 10.14 24.812 12.684H19.016C18.44 11.484 17.624 10.584 16.568 9.984C15.536 9.384 14.336 9.084 12.968 9.084C11.504 9.084 10.196 9.432 9.044 10.128C7.916 10.8 7.028 11.76 6.38 13.008C5.756 14.256 5.444 15.72 5.444 17.4C5.444 19.056 5.756 20.52 6.38 21.792C7.028 23.04 7.916 24.012 9.044 24.708C10.196 25.38 11.504 25.716 12.968 25.716C14.336 25.716 15.536 25.416 16.568 24.816C17.624 24.192 18.44 23.28 19.016 22.08H24.812C23.972 24.648 22.496 26.652 20.384 28.092C18.296 29.508 15.836 30.216 13.004 30.216C10.604 30.216 8.432 29.676 6.488 28.596C4.568 27.492 3.044 25.968 1.916 24.024C0.812 22.08 0.26 19.872 0.26 17.4ZM27.8208 19.956C27.8208 17.94 28.2168 16.152 29.0088 14.592C29.8248 13.032 30.9168 11.832 32.2848 10.992C33.6768 10.152 35.2248 9.732 36.9288 9.732C38.4168 9.732 39.7128 10.032 40.8168 10.632C41.9448 11.232 42.8448 11.988 43.5168 12.9V10.056H48.5928V30H43.5168V27.084C42.8688 28.02 41.9688 28.8 40.8168 29.424C39.6888 30.024 38.3808 30.324 36.8928 30.324C35.2128 30.324 33.6768 29.892 32.2848 29.028C30.9168 28.164 29.8248 26.952 29.0088 25.392C28.2168 23.808 27.8208 21.996 27.8208 19.956ZM43.5168 20.028C43.5168 18.804 43.2768 17.76 42.7968 16.896C42.3168 16.008 41.6688 15.336 40.8528 14.88C40.0368 14.4 39.1608 14.16 38.2248 14.16C37.2888 14.16 36.4248 14.388 35.6328 14.844C34.8408 15.3 34.1928 15.972 33.6888 16.86C33.2088 17.724 32.9688 18.756 32.9688 19.956C32.9688 21.156 33.2088 22.212 33.6888 23.124C34.1928 24.012 34.8408 24.696 35.6328 25.176C36.4488 25.656 37.3128 25.896 38.2248 25.896C39.1608 25.896 40.0368 25.668 40.8528 25.212C41.6688 24.732 42.3168 24.06 42.7968 23.196C43.2768 22.308 43.5168 21.252 43.5168 20.028ZM62.6593 14.196H59.1673V30H54.0553V14.196H51.7873V10.056H54.0553V9.048C54.0553 6.6 54.7513 4.8 56.1433 3.648C57.5353 2.496 59.6353 1.956 62.4433 2.028V6.276C61.2193 6.252 60.3673 6.456 59.8873 6.888C59.4073 7.32 59.1673 8.1 59.1673 9.228V10.056H62.6593V14.196ZM75.0694 14.196H71.5774V30H66.4654V14.196H64.1974V10.056H66.4654V9.048C66.4654 6.6 67.1614 4.8 68.5534 3.648C69.9454 2.496 72.0454 1.956 74.8534 2.028V6.276C73.6294 6.252 72.7774 6.456 72.2974 6.888C71.8174 7.32 71.5774 8.1 71.5774 9.228V10.056H75.0694V14.196ZM96.8756 19.596C96.8756 20.316 96.8276 20.964 96.7316 21.54H82.1516C82.2716 22.98 82.7756 24.108 83.6636 24.924C84.5516 25.74 85.6436 26.148 86.9396 26.148C88.8116 26.148 90.1436 25.344 90.9356 23.736H96.3716C95.7956 25.656 94.6916 27.24 93.0596 28.488C91.4276 29.712 89.4236 30.324 87.0476 30.324C85.1276 30.324 83.3996 29.904 81.8636 29.064C80.3516 28.2 79.1636 26.988 78.2996 25.428C77.4596 23.868 77.0396 22.068 77.0396 20.028C77.0396 17.964 77.4596 16.152 78.2996 14.592C79.1396 13.032 80.3156 11.832 81.8276 10.992C83.3396 10.152 85.0796 9.732 87.0476 9.732C88.9436 9.732 90.6356 10.14 92.1236 10.956C93.6356 11.772 94.7996 12.936 95.6156 14.448C96.4556 15.936 96.8756 17.652 96.8756 19.596ZM91.6556 18.156C91.6316 16.86 91.1636 15.828 90.2516 15.06C89.3396 14.268 88.2236 13.872 86.9036 13.872C85.6556 13.872 84.5996 14.256 83.7356 15.024C82.8956 15.768 82.3796 16.812 82.1876 18.156H91.6556ZM90.8996 4.8L82.6196 8.58V4.98L90.8996 0.696V4.8Z" fill="#E65100"/>
</svg>
