<?xml version="1.0" standalone="no"?>
<!DOCTYPE svg PUBLIC "-//W3C//DTD SVG 20010904//EN"
 "http://www.w3.org/TR/2001/REC-SVG-20010904/DTD/svg10.dtd">
<svg version="1.0" xmlns="http://www.w3.org/2000/svg"
 width="128.000000pt" height="128.000000pt" viewBox="0 0 128.000000 128.000000"
 preserveAspectRatio="xMidYMid meet">

<g transform="translate(0.000000,128.000000) scale(0.100000,-0.100000)"
fill="#000000" stroke="none">
<path d="M676 1128 c-8 -14 -44 -218 -85 -492 -68 -442 -71 -470 -55 -487 23
-25 50 -24 68 3 8 14 44 218 85 492 68 442 71 470 55 487 -23 25 -50 24 -68
-3z"/>
<path d="M161 830 c-96 -101 -161 -178 -161 -190 0 -12 65 -89 161 -190 161
-170 186 -189 217 -158 28 28 11 57 -123 199 -74 79 -135 146 -135 149 0 3 61
70 135 149 134 142 151 171 123 199 -31 31 -56 12 -217 -158z"/>
<path d="M902 988 c-28 -28 -11 -57 123 -199 74 -79 135 -146 135 -149 0 -3
-61 -70 -135 -149 -134 -142 -151 -171 -123 -199 31 -31 56 -12 217 158 96
101 161 178 161 190 0 12 -65 89 -161 190 -161 170 -186 189 -217 158z"/>
</g>
</svg>
