<svg width="276" height="30" viewBox="0 0 276 30" fill="none" xmlns="http://www.w3.org/2000/svg">
<path d="M18.98 11.432C18.404 10.376 17.612 9.572 16.604 9.02C15.596 8.468 14.42 8.192 13.076 8.192C11.588 8.192 10.268 8.528 9.116 9.2C7.964 9.872 7.064 10.832 6.416 12.08C5.768 13.328 5.444 14.768 5.444 16.4C5.444 18.08 5.768 19.544 6.416 20.792C7.088 22.04 8.012 23 9.188 23.672C10.364 24.344 11.732 24.68 13.292 24.68C15.212 24.68 16.784 24.176 18.008 23.168C19.232 22.136 20.036 20.708 20.42 18.884H11.78V15.032H25.388V19.424C25.052 21.176 24.332 22.796 23.228 24.284C22.124 25.772 20.696 26.972 18.944 27.884C17.216 28.772 15.272 29.216 13.112 29.216C10.688 29.216 8.492 28.676 6.524 27.596C4.58 26.492 3.044 24.968 1.916 23.024C0.812 21.08 0.26 18.872 0.26 16.4C0.26 13.928 0.812 11.72 1.916 9.776C3.044 7.808 4.58 6.284 6.524 5.204C8.492 4.1 10.676 3.548 13.076 3.548C15.908 3.548 18.368 4.244 20.456 5.636C22.544 7.004 23.984 8.936 24.776 11.432H18.98ZM27.8208 18.956C27.8208 16.94 28.2168 15.152 29.0088 13.592C29.8248 12.032 30.9168 10.832 32.2848 9.992C33.6768 9.152 35.2248 8.732 36.9288 8.732C38.4168 8.732 39.7128 9.032 40.8168 9.632C41.9448 10.232 42.8448 10.988 43.5168 11.9V9.056H48.5928V29H43.5168V26.084C42.8688 27.02 41.9688 27.8 40.8168 28.424C39.6888 29.024 38.3808 29.324 36.8928 29.324C35.2128 29.324 33.6768 28.892 32.2848 28.028C30.9168 27.164 29.8248 25.952 29.0088 24.392C28.2168 22.808 27.8208 20.996 27.8208 18.956ZM43.5168 19.028C43.5168 17.804 43.2768 16.76 42.7968 15.896C42.3168 15.008 41.6688 14.336 40.8528 13.88C40.0368 13.4 39.1608 13.16 38.2248 13.16C37.2888 13.16 36.4248 13.388 35.6328 13.844C34.8408 14.3 34.1928 14.972 33.6888 15.86C33.2088 16.724 32.9688 17.756 32.9688 18.956C32.9688 20.156 33.2088 21.212 33.6888 22.124C34.1928 23.012 34.8408 23.696 35.6328 24.176C36.4488 24.656 37.3128 24.896 38.2248 24.896C39.1608 24.896 40.0368 24.668 40.8528 24.212C41.6688 23.732 42.3168 23.06 42.7968 22.196C43.2768 21.308 43.5168 20.252 43.5168 19.028ZM59.3833 13.196V22.844C59.3833 23.516 59.5393 24.008 59.8513 24.32C60.1873 24.608 60.7393 24.752 61.5073 24.752H63.8473V29H60.6793C56.4313 29 54.3073 26.936 54.3073 22.808V13.196H51.9313V9.056H54.3073V4.124H59.3833V9.056H63.8473V13.196H59.3833ZM76.3283 29.324C74.4083 29.324 72.6803 28.904 71.1443 28.064C69.6083 27.2 68.3963 25.988 67.5083 24.428C66.6443 22.868 66.2123 21.068 66.2123 19.028C66.2123 16.988 66.6563 15.188 67.5443 13.628C68.4563 12.068 69.6923 10.868 71.2523 10.028C72.8123 9.164 74.5523 8.732 76.4723 8.732C78.3923 8.732 80.1323 9.164 81.6923 10.028C83.2523 10.868 84.4763 12.068 85.3643 13.628C86.2763 15.188 86.7323 16.988 86.7323 19.028C86.7323 21.068 86.2643 22.868 85.3283 24.428C84.4163 25.988 83.1683 27.2 81.5843 28.064C80.0243 28.904 78.2723 29.324 76.3283 29.324ZM76.3283 24.932C77.2403 24.932 78.0923 24.716 78.8843 24.284C79.7003 23.828 80.3483 23.156 80.8283 22.268C81.3083 21.38 81.5483 20.3 81.5483 19.028C81.5483 17.132 81.0443 15.68 80.0363 14.672C79.0523 13.64 77.8403 13.124 76.4003 13.124C74.9603 13.124 73.7483 13.64 72.7643 14.672C71.8043 15.68 71.3243 17.132 71.3243 19.028C71.3243 20.924 71.7923 22.388 72.7283 23.42C73.6883 24.428 74.8883 24.932 76.3283 24.932ZM98.0613 29.324C96.4293 29.324 94.9653 29.036 93.6693 28.46C92.3733 27.86 91.3413 27.056 90.5733 26.048C89.8293 25.04 89.4213 23.924 89.3493 22.7H94.4253C94.5213 23.468 94.8933 24.104 95.5413 24.608C96.2133 25.112 97.0413 25.364 98.0253 25.364C98.9853 25.364 99.7293 25.172 100.257 24.788C100.809 24.404 101.085 23.912 101.085 23.312C101.085 22.664 100.749 22.184 100.077 21.872C99.4293 21.536 98.3853 21.176 96.9453 20.792C95.4573 20.432 94.2333 20.06 93.2733 19.676C92.3373 19.292 91.5213 18.704 90.8253 17.912C90.1533 17.12 89.8173 16.052 89.8173 14.708C89.8173 13.604 90.1293 12.596 90.7533 11.684C91.4013 10.772 92.3133 10.052 93.4893 9.524C94.6893 8.996 96.0933 8.732 97.7013 8.732C100.077 8.732 101.973 9.332 103.389 10.532C104.805 11.708 105.585 13.304 105.729 15.32H100.905C100.833 14.528 100.497 13.904 99.8973 13.448C99.3213 12.968 98.5413 12.728 97.5573 12.728C96.6453 12.728 95.9373 12.896 95.4333 13.232C94.9533 13.568 94.7133 14.036 94.7133 14.636C94.7133 15.308 95.0493 15.824 95.7213 16.184C96.3933 16.52 97.4373 16.868 98.8533 17.228C100.293 17.588 101.481 17.96 102.417 18.344C103.353 18.728 104.157 19.328 104.829 20.144C105.525 20.936 105.885 21.992 105.909 23.312C105.909 24.464 105.585 25.496 104.937 26.408C104.313 27.32 103.401 28.04 102.201 28.568C101.025 29.072 99.6453 29.324 98.0613 29.324ZM117.401 16.4C117.401 13.928 117.953 11.72 119.057 9.776C120.185 7.808 121.709 6.284 123.629 5.204C125.573 4.1 127.745 3.548 130.145 3.548C132.953 3.548 135.413 4.268 137.525 5.708C139.637 7.148 141.113 9.14 141.953 11.684H136.157C135.581 10.484 134.765 9.584 133.709 8.984C132.677 8.384 131.477 8.084 130.109 8.084C128.645 8.084 127.337 8.432 126.185 9.128C125.057 9.8 124.169 10.76 123.521 12.008C122.897 13.256 122.585 14.72 122.585 16.4C122.585 18.056 122.897 19.52 123.521 20.792C124.169 22.04 125.057 23.012 126.185 23.708C127.337 24.38 128.645 24.716 130.109 24.716C131.477 24.716 132.677 24.416 133.709 23.816C134.765 23.192 135.581 22.28 136.157 21.08H141.953C141.113 23.648 139.637 25.652 137.525 27.092C135.437 28.508 132.977 29.216 130.145 29.216C127.745 29.216 125.573 28.676 123.629 27.596C121.709 26.492 120.185 24.968 119.057 23.024C117.953 21.08 117.401 18.872 117.401 16.4ZM165.085 9.056V29H160.009V26.48C159.361 27.344 158.509 28.028 157.453 28.532C156.421 29.012 155.293 29.252 154.069 29.252C152.509 29.252 151.129 28.928 149.929 28.28C148.729 27.608 147.781 26.636 147.085 25.364C146.413 24.068 146.077 22.532 146.077 20.756V9.056H151.117V20.036C151.117 21.62 151.513 22.844 152.305 23.708C153.097 24.548 154.177 24.968 155.545 24.968C156.937 24.968 158.029 24.548 158.821 23.708C159.613 22.844 160.009 21.62 160.009 20.036V9.056H165.085ZM175.098 12.152C175.746 11.096 176.586 10.268 177.618 9.668C178.674 9.068 179.874 8.768 181.218 8.768V14.06H179.886C178.302 14.06 177.102 14.432 176.286 15.176C175.494 15.92 175.098 17.216 175.098 19.064V29H170.058V9.056H175.098V12.152ZM187.169 6.68C186.281 6.68 185.537 6.404 184.937 5.852C184.361 5.276 184.073 4.568 184.073 3.728C184.073 2.888 184.361 2.192 184.937 1.64C185.537 1.064 186.281 0.775999 187.169 0.775999C188.057 0.775999 188.789 1.064 189.365 1.64C189.965 2.192 190.265 2.888 190.265 3.728C190.265 4.568 189.965 5.276 189.365 5.852C188.789 6.404 188.057 6.68 187.169 6.68ZM189.653 9.056V29H184.613V9.056H189.653ZM203.488 29.324C201.568 29.324 199.84 28.904 198.304 28.064C196.768 27.2 195.556 25.988 194.668 24.428C193.804 22.868 193.372 21.068 193.372 19.028C193.372 16.988 193.816 15.188 194.704 13.628C195.616 12.068 196.852 10.868 198.412 10.028C199.972 9.164 201.712 8.732 203.632 8.732C205.552 8.732 207.292 9.164 208.852 10.028C210.412 10.868 211.636 12.068 212.524 13.628C213.436 15.188 213.892 16.988 213.892 19.028C213.892 21.068 213.424 22.868 212.488 24.428C211.576 25.988 210.328 27.2 208.744 28.064C207.184 28.904 205.432 29.324 203.488 29.324ZM203.488 24.932C204.4 24.932 205.252 24.716 206.044 24.284C206.86 23.828 207.508 23.156 207.988 22.268C208.468 21.38 208.708 20.3 208.708 19.028C208.708 17.132 208.204 15.68 207.196 14.672C206.212 13.64 205 13.124 203.56 13.124C202.12 13.124 200.908 13.64 199.924 14.672C198.964 15.68 198.484 17.132 198.484 19.028C198.484 20.924 198.952 22.388 199.888 23.42C200.848 24.428 202.048 24.932 203.488 24.932ZM225.221 29.324C223.589 29.324 222.125 29.036 220.829 28.46C219.533 27.86 218.501 27.056 217.733 26.048C216.989 25.04 216.581 23.924 216.509 22.7H221.585C221.681 23.468 222.053 24.104 222.701 24.608C223.373 25.112 224.201 25.364 225.185 25.364C226.145 25.364 226.889 25.172 227.417 24.788C227.969 24.404 228.245 23.912 228.245 23.312C228.245 22.664 227.909 22.184 227.237 21.872C226.589 21.536 225.545 21.176 224.105 20.792C222.617 20.432 221.393 20.06 220.433 19.676C219.497 19.292 218.681 18.704 217.985 17.912C217.313 17.12 216.977 16.052 216.977 14.708C216.977 13.604 217.289 12.596 217.913 11.684C218.561 10.772 219.473 10.052 220.649 9.524C221.849 8.996 223.253 8.732 224.861 8.732C227.237 8.732 229.133 9.332 230.549 10.532C231.965 11.708 232.745 13.304 232.889 15.32H228.065C227.993 14.528 227.657 13.904 227.057 13.448C226.481 12.968 225.701 12.728 224.717 12.728C223.805 12.728 223.097 12.896 222.593 13.232C222.113 13.568 221.873 14.036 221.873 14.636C221.873 15.308 222.209 15.824 222.881 16.184C223.553 16.52 224.597 16.868 226.013 17.228C227.453 17.588 228.641 17.96 229.577 18.344C230.513 18.728 231.317 19.328 231.989 20.144C232.685 20.936 233.045 21.992 233.069 23.312C233.069 24.464 232.745 25.496 232.097 26.408C231.473 27.32 230.561 28.04 229.361 28.568C228.185 29.072 226.805 29.324 225.221 29.324ZM246.063 29.324C244.143 29.324 242.415 28.904 240.879 28.064C239.343 27.2 238.131 25.988 237.243 24.428C236.379 22.868 235.947 21.068 235.947 19.028C235.947 16.988 236.391 15.188 237.279 13.628C238.191 12.068 239.427 10.868 240.987 10.028C242.547 9.164 244.287 8.732 246.207 8.732C248.127 8.732 249.867 9.164 251.427 10.028C252.987 10.868 254.211 12.068 255.099 13.628C256.011 15.188 256.467 16.988 256.467 19.028C256.467 21.068 255.999 22.868 255.063 24.428C254.151 25.988 252.903 27.2 251.319 28.064C249.759 28.904 248.007 29.324 246.063 29.324ZM246.063 24.932C246.975 24.932 247.827 24.716 248.619 24.284C249.435 23.828 250.083 23.156 250.563 22.268C251.043 21.38 251.283 20.3 251.283 19.028C251.283 17.132 250.779 15.68 249.771 14.672C248.787 13.64 247.575 13.124 246.135 13.124C244.695 13.124 243.483 13.64 242.499 14.672C241.539 15.68 241.059 17.132 241.059 19.028C241.059 20.924 241.527 22.388 242.463 23.42C243.423 24.428 244.623 24.932 246.063 24.932ZM267.796 29.324C266.164 29.324 264.7 29.036 263.404 28.46C262.108 27.86 261.076 27.056 260.308 26.048C259.564 25.04 259.156 23.924 259.084 22.7H264.16C264.256 23.468 264.628 24.104 265.276 24.608C265.948 25.112 266.776 25.364 267.76 25.364C268.72 25.364 269.464 25.172 269.992 24.788C270.544 24.404 270.82 23.912 270.82 23.312C270.82 22.664 270.484 22.184 269.812 21.872C269.164 21.536 268.12 21.176 266.68 20.792C265.192 20.432 263.968 20.06 263.008 19.676C262.072 19.292 261.256 18.704 260.56 17.912C259.888 17.12 259.552 16.052 259.552 14.708C259.552 13.604 259.864 12.596 260.488 11.684C261.136 10.772 262.048 10.052 263.224 9.524C264.424 8.996 265.828 8.732 267.436 8.732C269.812 8.732 271.708 9.332 273.124 10.532C274.54 11.708 275.32 13.304 275.464 15.32H270.64C270.568 14.528 270.232 13.904 269.632 13.448C269.056 12.968 268.276 12.728 267.292 12.728C266.38 12.728 265.672 12.896 265.168 13.232C264.688 13.568 264.448 14.036 264.448 14.636C264.448 15.308 264.784 15.824 265.456 16.184C266.128 16.52 267.172 16.868 268.588 17.228C270.028 17.588 271.216 17.96 272.152 18.344C273.088 18.728 273.892 19.328 274.564 20.144C275.26 20.936 275.62 21.992 275.644 23.312C275.644 24.464 275.32 25.496 274.672 26.408C274.048 27.32 273.136 28.04 271.936 28.568C270.76 29.072 269.38 29.324 267.796 29.324Z" fill="#F698B2"/>
</svg>
