<svg width="340" height="42" viewBox="0 0 340 42" fill="none" xmlns="http://www.w3.org/2000/svg">
<path d="M8.692 30.248L0.844 22.184L8.692 14.12H15.028L7.18 22.184L15.028 30.248H8.692ZM30.1834 35.252C28.4314 35.252 26.8474 34.952 25.4314 34.352C24.0394 33.752 22.9354 32.888 22.1194 31.76C21.3034 30.632 20.8834 29.3 20.8594 27.764H26.2594C26.3314 28.796 26.6914 29.612 27.3394 30.212C28.0114 30.812 28.9234 31.112 30.0754 31.112C31.2514 31.112 32.1754 30.836 32.8474 30.284C33.5194 29.708 33.8554 28.964 33.8554 28.052C33.8554 27.308 33.6274 26.696 33.1714 26.216C32.7154 25.736 32.1394 25.364 31.4434 25.1C30.7714 24.812 29.8354 24.5 28.6354 24.164C27.0034 23.684 25.6714 23.216 24.6394 22.76C23.6314 22.28 22.7554 21.572 22.0114 20.636C21.2914 19.676 20.9314 18.404 20.9314 16.82C20.9314 15.332 21.3034 14.036 22.0474 12.932C22.7914 11.828 23.8354 10.988 25.1794 10.412C26.5234 9.812 28.0594 9.512 29.7874 9.512C32.3794 9.512 34.4794 10.148 36.0874 11.42C37.7194 12.668 38.6194 14.42 38.7874 16.676H33.2434C33.1954 15.812 32.8234 15.104 32.1274 14.552C31.4554 13.976 30.5554 13.688 29.4274 13.688C28.4434 13.688 27.6514 13.94 27.0514 14.444C26.4754 14.948 26.1874 15.68 26.1874 16.64C26.1874 17.312 26.4034 17.876 26.8354 18.332C27.2914 18.764 27.8434 19.124 28.4914 19.412C29.1634 19.676 30.0994 19.988 31.2994 20.348C32.9314 20.828 34.2634 21.308 35.2954 21.788C36.3274 22.268 37.2154 22.988 37.9594 23.948C38.7034 24.908 39.0754 26.168 39.0754 27.728C39.0754 29.072 38.7274 30.32 38.0314 31.472C37.3354 32.624 36.3154 33.548 34.9714 34.244C33.6274 34.916 32.0314 35.252 30.1834 35.252ZM42.1489 24.956C42.1489 22.94 42.5449 21.152 43.3369 19.592C44.1529 18.032 45.2449 16.832 46.6129 15.992C48.0049 15.152 49.5529 14.732 51.2569 14.732C52.7449 14.732 54.0409 15.032 55.1449 15.632C56.2729 16.232 57.1729 16.988 57.8449 17.9V15.056H62.9209V35H57.8449V32.084C57.1969 33.02 56.2969 33.8 55.1449 34.424C54.0169 35.024 52.7089 35.324 51.2209 35.324C49.5409 35.324 48.0049 34.892 46.6129 34.028C45.2449 33.164 44.1529 31.952 43.3369 30.392C42.5449 28.808 42.1489 26.996 42.1489 24.956ZM57.8449 25.028C57.8449 23.804 57.6049 22.76 57.1249 21.896C56.6449 21.008 55.9969 20.336 55.1809 19.88C54.3649 19.4 53.4889 19.16 52.5529 19.16C51.6169 19.16 50.7529 19.388 49.9609 19.844C49.1689 20.3 48.5209 20.972 48.0169 21.86C47.5369 22.724 47.2969 23.756 47.2969 24.956C47.2969 26.156 47.5369 27.212 48.0169 28.124C48.5209 29.012 49.1689 29.696 49.9609 30.176C50.7769 30.656 51.6409 30.896 52.5529 30.896C53.4889 30.896 54.3649 30.668 55.1809 30.212C55.9969 29.732 56.6449 29.06 57.1249 28.196C57.6049 27.308 57.8449 26.252 57.8449 25.028ZM92.6114 14.768C95.0594 14.768 97.0274 15.524 98.5154 17.036C100.027 18.524 100.783 20.612 100.783 23.3V35H95.7434V23.984C95.7434 22.424 95.3474 21.236 94.5554 20.42C93.7634 19.58 92.6834 19.16 91.3154 19.16C89.9474 19.16 88.8554 19.58 88.0394 20.42C87.2474 21.236 86.8514 22.424 86.8514 23.984V35H81.8114V23.984C81.8114 22.424 81.4154 21.236 80.6234 20.42C79.8314 19.58 78.7514 19.16 77.3834 19.16C75.9914 19.16 74.8874 19.58 74.0714 20.42C73.2794 21.236 72.8834 22.424 72.8834 23.984V35H67.8434V15.056H72.8834V17.468C73.5314 16.628 74.3594 15.968 75.3674 15.488C76.3994 15.008 77.5274 14.768 78.7514 14.768C80.3114 14.768 81.7034 15.104 82.9274 15.776C84.1514 16.424 85.0994 17.36 85.7714 18.584C86.4194 17.432 87.3554 16.508 88.5794 15.812C89.8274 15.116 91.1714 14.768 92.6114 14.768ZM124.394 15.056V35H119.318V32.48C118.67 33.344 117.818 34.028 116.762 34.532C115.73 35.012 114.602 35.252 113.378 35.252C111.818 35.252 110.438 34.928 109.238 34.28C108.038 33.608 107.09 32.636 106.394 31.364C105.722 30.068 105.386 28.532 105.386 26.756V15.056H110.426V26.036C110.426 27.62 110.822 28.844 111.614 29.708C112.406 30.548 113.486 30.968 114.854 30.968C116.246 30.968 117.338 30.548 118.13 29.708C118.922 28.844 119.318 27.62 119.318 26.036V15.056H124.394ZM147.907 24.596C147.907 25.316 147.859 25.964 147.763 26.54H133.183C133.303 27.98 133.807 29.108 134.695 29.924C135.583 30.74 136.675 31.148 137.971 31.148C139.843 31.148 141.175 30.344 141.967 28.736H147.403C146.827 30.656 145.723 32.24 144.091 33.488C142.459 34.712 140.455 35.324 138.079 35.324C136.159 35.324 134.431 34.904 132.895 34.064C131.383 33.2 130.195 31.988 129.331 30.428C128.491 28.868 128.071 27.068 128.071 25.028C128.071 22.964 128.491 21.152 129.331 19.592C130.171 18.032 131.347 16.832 132.859 15.992C134.371 15.152 136.111 14.732 138.079 14.732C139.975 14.732 141.667 15.14 143.155 15.956C144.667 16.772 145.831 17.936 146.647 19.448C147.487 20.936 147.907 22.652 147.907 24.596ZM142.687 23.156C142.663 21.86 142.195 20.828 141.283 20.06C140.371 19.268 139.255 18.872 137.935 18.872C136.687 18.872 135.631 19.256 134.767 20.024C133.927 20.768 133.411 21.812 133.219 23.156H142.687ZM156.626 8.36V35H151.586V8.36H156.626ZM184.439 22.112C185.855 22.376 187.019 23.084 187.931 24.236C188.843 25.388 189.299 26.708 189.299 28.196C189.299 29.54 188.963 30.728 188.291 31.76C187.643 32.768 186.695 33.56 185.447 34.136C184.199 34.712 182.723 35 181.019 35H170.183V9.872H180.551C182.255 9.872 183.719 10.148 184.943 10.7C186.191 11.252 187.127 12.02 187.751 13.004C188.399 13.988 188.723 15.104 188.723 16.352C188.723 17.816 188.327 19.04 187.535 20.024C186.767 21.008 185.735 21.704 184.439 22.112ZM175.223 20.24H179.831C181.031 20.24 181.955 19.976 182.603 19.448C183.251 18.896 183.575 18.116 183.575 17.108C183.575 16.1 183.251 15.32 182.603 14.768C181.955 14.216 181.031 13.94 179.831 13.94H175.223V20.24ZM180.299 30.896C181.523 30.896 182.471 30.608 183.143 30.032C183.839 29.456 184.187 28.64 184.187 27.584C184.187 26.504 183.827 25.664 183.107 25.064C182.387 24.44 181.415 24.128 180.191 24.128H175.223V30.896H180.299ZM192.02 24.956C192.02 22.94 192.416 21.152 193.208 19.592C194.024 18.032 195.116 16.832 196.484 15.992C197.876 15.152 199.424 14.732 201.128 14.732C202.616 14.732 203.912 15.032 205.016 15.632C206.144 16.232 207.044 16.988 207.716 17.9V15.056H212.792V35H207.716V32.084C207.068 33.02 206.168 33.8 205.016 34.424C203.888 35.024 202.58 35.324 201.092 35.324C199.412 35.324 197.876 34.892 196.484 34.028C195.116 33.164 194.024 31.952 193.208 30.392C192.416 28.808 192.02 26.996 192.02 24.956ZM207.716 25.028C207.716 23.804 207.476 22.76 206.996 21.896C206.516 21.008 205.868 20.336 205.052 19.88C204.236 19.4 203.36 19.16 202.424 19.16C201.488 19.16 200.624 19.388 199.832 19.844C199.04 20.3 198.392 20.972 197.888 21.86C197.408 22.724 197.168 23.756 197.168 24.956C197.168 26.156 197.408 27.212 197.888 28.124C198.392 29.012 199.04 29.696 199.832 30.176C200.648 30.656 201.512 30.896 202.424 30.896C203.36 30.896 204.236 30.668 205.052 30.212C205.868 29.732 206.516 29.06 206.996 28.196C207.476 27.308 207.716 26.252 207.716 25.028ZM222.754 8.36V35H217.714V8.36H222.754ZM246.274 24.596C246.274 25.316 246.226 25.964 246.13 26.54H231.55C231.67 27.98 232.174 29.108 233.062 29.924C233.95 30.74 235.042 31.148 236.338 31.148C238.21 31.148 239.542 30.344 240.334 28.736H245.77C245.194 30.656 244.09 32.24 242.458 33.488C240.826 34.712 238.822 35.324 236.446 35.324C234.526 35.324 232.798 34.904 231.262 34.064C229.75 33.2 228.562 31.988 227.698 30.428C226.858 28.868 226.438 27.068 226.438 25.028C226.438 22.964 226.858 21.152 227.698 19.592C228.538 18.032 229.714 16.832 231.226 15.992C232.738 15.152 234.478 14.732 236.446 14.732C238.342 14.732 240.034 15.14 241.522 15.956C243.034 16.772 244.198 17.936 245.014 19.448C245.854 20.936 246.274 22.652 246.274 24.596ZM241.054 23.156C241.03 21.86 240.562 20.828 239.65 20.06C238.738 19.268 237.622 18.872 236.302 18.872C235.054 18.872 233.998 19.256 233.134 20.024C232.294 20.768 231.778 21.812 231.586 23.156H241.054ZM261.005 14.768C263.381 14.768 265.301 15.524 266.765 17.036C268.229 18.524 268.961 20.612 268.961 23.3V35H263.921V23.984C263.921 22.4 263.525 21.188 262.733 20.348C261.941 19.484 260.861 19.052 259.493 19.052C258.101 19.052 256.997 19.484 256.181 20.348C255.389 21.188 254.993 22.4 254.993 23.984V35H249.953V15.056H254.993V17.54C255.665 16.676 256.517 16.004 257.549 15.524C258.605 15.02 259.757 14.768 261.005 14.768ZM272.458 24.956C272.458 22.94 272.854 21.152 273.646 19.592C274.462 18.032 275.554 16.832 276.922 15.992C278.314 15.152 279.862 14.732 281.566 14.732C283.054 14.732 284.35 15.032 285.454 15.632C286.582 16.232 287.482 16.988 288.154 17.9V15.056H293.23V35H288.154V32.084C287.506 33.02 286.606 33.8 285.454 34.424C284.326 35.024 283.018 35.324 281.53 35.324C279.85 35.324 278.314 34.892 276.922 34.028C275.554 33.164 274.462 31.952 273.646 30.392C272.854 28.808 272.458 26.996 272.458 24.956ZM288.154 25.028C288.154 23.804 287.914 22.76 287.434 21.896C286.954 21.008 286.306 20.336 285.49 19.88C284.674 19.4 283.798 19.16 282.862 19.16C281.926 19.16 281.062 19.388 280.27 19.844C279.478 20.3 278.83 20.972 278.326 21.86C277.846 22.724 277.606 23.756 277.606 24.956C277.606 26.156 277.846 27.212 278.326 28.124C278.83 29.012 279.478 29.696 280.27 30.176C281.086 30.656 281.95 30.896 282.862 30.896C283.798 30.896 284.674 30.668 285.49 30.212C286.306 29.732 286.954 29.06 287.434 28.196C287.914 27.308 288.154 26.252 288.154 25.028ZM320.23 0.907999L310.51 41.516H305.578L315.298 0.907999H320.23ZM324.958 14.12H331.33L339.178 22.184L331.33 30.248H324.958L332.842 22.184L324.958 14.12Z" fill="white"/>
</svg>
