<svg width="257" height="30" viewBox="0 0 257 30" fill="none" xmlns="http://www.w3.org/2000/svg">
<path d="M10.16 29.252C8.408 29.252 6.824 28.952 5.408 28.352C4.016 27.752 2.912 26.888 2.096 25.76C1.28 24.632 0.86 23.3 0.836 21.764H6.236C6.308 22.796 6.668 23.612 7.316 24.212C7.988 24.812 8.9 25.112 10.052 25.112C11.228 25.112 12.152 24.836 12.824 24.284C13.496 23.708 13.832 22.964 13.832 22.052C13.832 21.308 13.604 20.696 13.148 20.216C12.692 19.736 12.116 19.364 11.42 19.1C10.748 18.812 9.812 18.5 8.612 18.164C6.98 17.684 5.648 17.216 4.616 16.76C3.608 16.28 2.732 15.572 1.988 14.636C1.268 13.676 0.908 12.404 0.908 10.82C0.908 9.332 1.28 8.036 2.024 6.932C2.768 5.828 3.812 4.988 5.156 4.412C6.5 3.812 8.036 3.512 9.764 3.512C12.356 3.512 14.456 4.148 16.064 5.42C17.696 6.668 18.596 8.42 18.764 10.676H13.22C13.172 9.812 12.8 9.104 12.104 8.552C11.432 7.976 10.532 7.688 9.404 7.688C8.42 7.688 7.628 7.94 7.028 8.444C6.452 8.948 6.164 9.68 6.164 10.64C6.164 11.312 6.38 11.876 6.812 12.332C7.268 12.764 7.82 13.124 8.468 13.412C9.14 13.676 10.076 13.988 11.276 14.348C12.908 14.828 14.24 15.308 15.272 15.788C16.304 16.268 17.192 16.988 17.936 17.948C18.68 18.908 19.052 20.168 19.052 21.728C19.052 23.072 18.704 24.32 18.008 25.472C17.312 26.624 16.292 27.548 14.948 28.244C13.604 28.916 12.008 29.252 10.16 29.252ZM29.2895 13.196V22.844C29.2895 23.516 29.4455 24.008 29.7575 24.32C30.0935 24.608 30.6455 24.752 31.4135 24.752H33.7535V29H30.5855C26.3375 29 24.2135 26.936 24.2135 22.808V13.196H21.8375V9.056H24.2135V4.124H29.2895V9.056H33.7535V13.196H29.2895ZM36.0825 18.956C36.0825 16.94 36.4785 15.152 37.2705 13.592C38.0865 12.032 39.1785 10.832 40.5465 9.992C41.9385 9.152 43.4865 8.732 45.1905 8.732C46.6785 8.732 47.9745 9.032 49.0785 9.632C50.2065 10.232 51.1065 10.988 51.7785 11.9V9.056H56.8545V29H51.7785V26.084C51.1305 27.02 50.2305 27.8 49.0785 28.424C47.9505 29.024 46.6425 29.324 45.1545 29.324C43.4745 29.324 41.9385 28.892 40.5465 28.028C39.1785 27.164 38.0865 25.952 37.2705 24.392C36.4785 22.808 36.0825 20.996 36.0825 18.956ZM51.7785 19.028C51.7785 17.804 51.5385 16.76 51.0585 15.896C50.5785 15.008 49.9305 14.336 49.1145 13.88C48.2985 13.4 47.4225 13.16 46.4865 13.16C45.5505 13.16 44.6865 13.388 43.8945 13.844C43.1025 14.3 42.4545 14.972 41.9505 15.86C41.4705 16.724 41.2305 17.756 41.2305 18.956C41.2305 20.156 41.4705 21.212 41.9505 22.124C42.4545 23.012 43.1025 23.696 43.8945 24.176C44.7105 24.656 45.5745 24.896 46.4865 24.896C47.4225 24.896 48.2985 24.668 49.1145 24.212C49.9305 23.732 50.5785 23.06 51.0585 22.196C51.5385 21.308 51.7785 20.252 51.7785 19.028ZM66.817 12.152C67.465 11.096 68.305 10.268 69.337 9.668C70.393 9.068 71.593 8.768 72.937 8.768V14.06H71.605C70.021 14.06 68.821 14.432 68.005 15.176C67.213 15.92 66.817 17.216 66.817 19.064V29H61.777V9.056H66.817V12.152ZM82.1997 13.196V22.844C82.1997 23.516 82.3557 24.008 82.6677 24.32C83.0037 24.608 83.5557 24.752 84.3237 24.752H86.6637V29H83.4957C79.2477 29 77.1237 26.936 77.1237 22.808V13.196H74.7477V9.056H77.1237V4.124H82.1997V9.056H86.6637V13.196H82.1997ZM113.123 16.112C114.539 16.376 115.703 17.084 116.615 18.236C117.527 19.388 117.983 20.708 117.983 22.196C117.983 23.54 117.647 24.728 116.975 25.76C116.327 26.768 115.379 27.56 114.131 28.136C112.883 28.712 111.407 29 109.703 29H98.8668V3.872H109.235C110.939 3.872 112.403 4.148 113.627 4.7C114.875 5.252 115.811 6.02 116.435 7.004C117.083 7.988 117.407 9.104 117.407 10.352C117.407 11.816 117.011 13.04 116.219 14.024C115.451 15.008 114.419 15.704 113.123 16.112ZM103.907 14.24H108.515C109.715 14.24 110.639 13.976 111.287 13.448C111.935 12.896 112.259 12.116 112.259 11.108C112.259 10.1 111.935 9.32 111.287 8.768C110.639 8.216 109.715 7.94 108.515 7.94H103.907V14.24ZM108.983 24.896C110.207 24.896 111.155 24.608 111.827 24.032C112.523 23.456 112.871 22.64 112.871 21.584C112.871 20.504 112.511 19.664 111.791 19.064C111.071 18.44 110.099 18.128 108.875 18.128H103.907V24.896H108.983ZM140.828 9.056V29H135.752V26.48C135.104 27.344 134.252 28.028 133.196 28.532C132.164 29.012 131.036 29.252 129.812 29.252C128.252 29.252 126.872 28.928 125.672 28.28C124.472 27.608 123.524 26.636 122.828 25.364C122.156 24.068 121.82 22.532 121.82 20.756V9.056H126.86V20.036C126.86 21.62 127.256 22.844 128.048 23.708C128.84 24.548 129.92 24.968 131.288 24.968C132.68 24.968 133.772 24.548 134.564 23.708C135.356 22.844 135.752 21.62 135.752 20.036V9.056H140.828ZM153.432 29.324C151.8 29.324 150.336 29.036 149.04 28.46C147.744 27.86 146.712 27.056 145.944 26.048C145.2 25.04 144.792 23.924 144.72 22.7H149.796C149.892 23.468 150.264 24.104 150.912 24.608C151.584 25.112 152.412 25.364 153.396 25.364C154.356 25.364 155.1 25.172 155.628 24.788C156.18 24.404 156.456 23.912 156.456 23.312C156.456 22.664 156.12 22.184 155.448 21.872C154.8 21.536 153.756 21.176 152.316 20.792C150.828 20.432 149.604 20.06 148.644 19.676C147.708 19.292 146.892 18.704 146.196 17.912C145.524 17.12 145.188 16.052 145.188 14.708C145.188 13.604 145.5 12.596 146.124 11.684C146.772 10.772 147.684 10.052 148.86 9.524C150.06 8.996 151.464 8.732 153.072 8.732C155.448 8.732 157.344 9.332 158.76 10.532C160.176 11.708 160.956 13.304 161.1 15.32H156.276C156.204 14.528 155.868 13.904 155.268 13.448C154.692 12.968 153.912 12.728 152.928 12.728C152.016 12.728 151.308 12.896 150.804 13.232C150.324 13.568 150.084 14.036 150.084 14.636C150.084 15.308 150.42 15.824 151.092 16.184C151.764 16.52 152.808 16.868 154.224 17.228C155.664 17.588 156.852 17.96 157.788 18.344C158.724 18.728 159.528 19.328 160.2 20.144C160.896 20.936 161.256 21.992 161.28 23.312C161.28 24.464 160.956 25.496 160.308 26.408C159.684 27.32 158.772 28.04 157.572 28.568C156.396 29.072 155.016 29.324 153.432 29.324ZM167.974 6.68C167.086 6.68 166.342 6.404 165.742 5.852C165.166 5.276 164.878 4.568 164.878 3.728C164.878 2.888 165.166 2.192 165.742 1.64C166.342 1.064 167.086 0.775999 167.974 0.775999C168.862 0.775999 169.594 1.064 170.17 1.64C170.77 2.192 171.07 2.888 171.07 3.728C171.07 4.568 170.77 5.276 170.17 5.852C169.594 6.404 168.862 6.68 167.974 6.68ZM170.458 9.056V29H165.418V9.056H170.458ZM186.489 8.768C188.865 8.768 190.785 9.524 192.249 11.036C193.713 12.524 194.445 14.612 194.445 17.3V29H189.405V17.984C189.405 16.4 189.009 15.188 188.217 14.348C187.425 13.484 186.345 13.052 184.977 13.052C183.585 13.052 182.481 13.484 181.665 14.348C180.873 15.188 180.477 16.4 180.477 17.984V29H175.437V9.056H180.477V11.54C181.149 10.676 182.001 10.004 183.033 9.524C184.089 9.02 185.241 8.768 186.489 8.768ZM217.778 18.596C217.778 19.316 217.73 19.964 217.634 20.54H203.054C203.174 21.98 203.678 23.108 204.566 23.924C205.454 24.74 206.546 25.148 207.842 25.148C209.714 25.148 211.046 24.344 211.838 22.736H217.274C216.698 24.656 215.594 26.24 213.962 27.488C212.33 28.712 210.326 29.324 207.95 29.324C206.03 29.324 204.302 28.904 202.766 28.064C201.254 27.2 200.066 25.988 199.202 24.428C198.362 22.868 197.942 21.068 197.942 19.028C197.942 16.964 198.362 15.152 199.202 13.592C200.042 12.032 201.218 10.832 202.73 9.992C204.242 9.152 205.982 8.732 207.95 8.732C209.846 8.732 211.538 9.14 213.026 9.956C214.538 10.772 215.702 11.936 216.518 13.448C217.358 14.936 217.778 16.652 217.778 18.596ZM212.558 17.156C212.534 15.86 212.066 14.828 211.154 14.06C210.242 13.268 209.126 12.872 207.806 12.872C206.558 12.872 205.502 13.256 204.638 14.024C203.798 14.768 203.282 15.812 203.09 17.156H212.558ZM229.089 29.324C227.457 29.324 225.993 29.036 224.697 28.46C223.401 27.86 222.369 27.056 221.601 26.048C220.857 25.04 220.449 23.924 220.377 22.7H225.453C225.549 23.468 225.921 24.104 226.569 24.608C227.241 25.112 228.069 25.364 229.053 25.364C230.013 25.364 230.757 25.172 231.285 24.788C231.837 24.404 232.113 23.912 232.113 23.312C232.113 22.664 231.777 22.184 231.105 21.872C230.457 21.536 229.413 21.176 227.973 20.792C226.485 20.432 225.261 20.06 224.301 19.676C223.365 19.292 222.549 18.704 221.853 17.912C221.181 17.12 220.845 16.052 220.845 14.708C220.845 13.604 221.157 12.596 221.781 11.684C222.429 10.772 223.341 10.052 224.517 9.524C225.717 8.996 227.121 8.732 228.729 8.732C231.105 8.732 233.001 9.332 234.417 10.532C235.833 11.708 236.613 13.304 236.757 15.32H231.933C231.861 14.528 231.525 13.904 230.925 13.448C230.349 12.968 229.569 12.728 228.585 12.728C227.673 12.728 226.965 12.896 226.461 13.232C225.981 13.568 225.741 14.036 225.741 14.636C225.741 15.308 226.077 15.824 226.749 16.184C227.421 16.52 228.465 16.868 229.881 17.228C231.321 17.588 232.509 17.96 233.445 18.344C234.381 18.728 235.185 19.328 235.857 20.144C236.553 20.936 236.913 21.992 236.937 23.312C236.937 24.464 236.613 25.496 235.965 26.408C235.341 27.32 234.429 28.04 233.229 28.568C232.053 29.072 230.673 29.324 229.089 29.324ZM248.706 29.324C247.074 29.324 245.61 29.036 244.314 28.46C243.018 27.86 241.986 27.056 241.218 26.048C240.474 25.04 240.066 23.924 239.994 22.7H245.07C245.166 23.468 245.538 24.104 246.186 24.608C246.858 25.112 247.686 25.364 248.67 25.364C249.63 25.364 250.374 25.172 250.902 24.788C251.454 24.404 251.73 23.912 251.73 23.312C251.73 22.664 251.394 22.184 250.722 21.872C250.074 21.536 249.03 21.176 247.59 20.792C246.102 20.432 244.878 20.06 243.918 19.676C242.982 19.292 242.166 18.704 241.47 17.912C240.798 17.12 240.462 16.052 240.462 14.708C240.462 13.604 240.774 12.596 241.398 11.684C242.046 10.772 242.958 10.052 244.134 9.524C245.334 8.996 246.738 8.732 248.346 8.732C250.722 8.732 252.618 9.332 254.034 10.532C255.45 11.708 256.23 13.304 256.374 15.32H251.55C251.478 14.528 251.142 13.904 250.542 13.448C249.966 12.968 249.186 12.728 248.202 12.728C247.29 12.728 246.582 12.896 246.078 13.232C245.598 13.568 245.358 14.036 245.358 14.636C245.358 15.308 245.694 15.824 246.366 16.184C247.038 16.52 248.082 16.868 249.498 17.228C250.938 17.588 252.126 17.96 253.062 18.344C253.998 18.728 254.802 19.328 255.474 20.144C256.17 20.936 256.53 21.992 256.554 23.312C256.554 24.464 256.23 25.496 255.582 26.408C254.958 27.32 254.046 28.04 252.846 28.568C251.67 29.072 250.29 29.324 248.706 29.324Z" fill="#C53F3F"/>
</svg>
