<?xml version="1.0" standalone="no"?>
<!DOCTYPE svg PUBLIC "-//W3C//DTD SVG 20010904//EN"
 "http://www.w3.org/TR/2001/REC-SVG-20010904/DTD/svg10.dtd">
<svg version="1.0" xmlns="http://www.w3.org/2000/svg"
 width="128.000000pt" height="128.000000pt" viewBox="0 0 128.000000 128.000000"
 preserveAspectRatio="xMidYMid meet">

<g transform="translate(0.000000,128.000000) scale(0.100000,-0.100000)"
fill="#000000" stroke="none">
<path d="M174 1246 c-3 -8 -4 -99 -2 -203 3 -177 4 -190 26 -226 34 -53 96
-87 161 -87 54 0 113 23 142 56 46 52 50 75 47 276 l-3 193 -45 0 -45 0 -5
-187 c-5 -171 -7 -189 -25 -208 -34 -34 -77 -36 -113 -5 l-32 26 -2 187 -3
187 -48 3 c-35 2 -49 -1 -53 -12z"/>
<path d="M664 1249 c-3 -6 7 -30 23 -53 16 -22 54 -78 86 -122 l57 -82 -86
-121 c-46 -67 -82 -126 -79 -131 3 -6 25 -10 48 -10 41 0 43 2 101 85 33 47
65 85 71 85 7 0 39 -38 71 -85 l59 -84 48 -1 c28 0 47 4 47 11 0 6 -36 62 -80
124 -44 62 -80 119 -80 127 0 8 36 66 81 128 44 62 78 119 75 126 -3 9 -20 14
-45 14 -38 0 -42 -3 -95 -78 -83 -119 -75 -118 -151 -13 -64 87 -68 91 -105
91 -22 0 -42 -5 -46 -11z"/>
<path d="M5 649 c-4 -6 -3 -15 2 -20 5 -5 265 -8 639 -7 551 3 629 5 629 18 0
13 -78 15 -632 18 -449 1 -634 -1 -638 -9z"/>
<path d="M170 363 c0 -161 3 -194 19 -228 31 -69 105 -115 181 -115 60 1 147
63 169 123 7 16 11 108 11 218 l0 189 -50 0 -50 0 0 -179 c0 -178 0 -180 -26
-210 -31 -37 -79 -42 -115 -12 -23 19 -24 25 -29 208 l-5 188 -52 3 -53 3 0
-188z"/>
<path d="M684 536 c-3 -8 -4 -29 -2 -48 l3 -33 80 -5 80 -5 3 -157 3 -157 -83
-3 -83 -3 0 -50 0 -50 210 0 210 0 0 50 0 50 -80 5 -80 5 0 155 0 155 80 5 80
5 3 48 3 47 -211 0 c-172 0 -212 -3 -216 -14z"/>
</g>
</svg>
