<?xml version="1.0" standalone="no"?>
<!DOCTYPE svg PUBLIC "-//W3C//DTD SVG 20010904//EN"
 "http://www.w3.org/TR/2001/REC-SVG-20010904/DTD/svg10.dtd">
<svg version="1.0" xmlns="http://www.w3.org/2000/svg"
 width="128.000000pt" height="128.000000pt" viewBox="0 0 128.000000 128.000000"
 preserveAspectRatio="xMidYMid meet">

<g transform="translate(0.000000,128.000000) scale(0.100000,-0.100000)"
fill="#000000" stroke="none">
<path d="M12 1268 c-8 -8 -12 -45 -12 -105 0 -91 1 -94 26 -103 32 -13 135
-13 167 -1 16 6 28 21 32 40 l7 31 70 0 71 0 -60 -54 c-70 -64 -127 -164 -147
-259 -10 -49 -21 -70 -50 -99 -30 -30 -36 -43 -36 -78 0 -34 6 -48 34 -76 28
-28 42 -34 76 -34 34 0 48 6 76 34 28 28 34 42 34 76 0 35 -6 48 -36 78 -31
31 -35 39 -29 73 10 55 58 151 102 200 66 73 193 143 210 115 37 -59 149 -59
186 0 17 28 144 -42 210 -115 44 -49 92 -145 102 -200 6 -34 2 -42 -29 -73
-30 -30 -36 -43 -36 -78 0 -60 50 -110 110 -110 34 0 48 6 76 34 28 28 34 42
34 76 0 35 -6 48 -36 78 -29 29 -40 50 -50 98 -19 93 -68 180 -140 252 l-64
62 69 0 c69 0 69 0 76 -31 4 -19 16 -34 32 -40 32 -12 135 -12 167 1 25 9 26
12 26 104 0 68 -4 97 -14 105 -9 8 -47 11 -107 9 l-93 -3 -10 -32 -9 -33 -148
0 -147 0 -30 29 c-52 53 -112 53 -164 0 l-30 -29 -147 0 -148 0 -9 33 -10 32
-95 3 c-65 2 -98 -1 -107 -10z m138 -103 c0 -33 -2 -35 -35 -35 -33 0 -35 2
-35 35 0 33 2 35 35 35 33 0 35 -2 35 -35z m519 21 c16 -20 -3 -56 -29 -56
-26 0 -45 36 -29 56 6 8 19 14 29 14 10 0 23 -6 29 -14z m531 -21 c0 -33 -2
-35 -35 -35 -33 0 -35 2 -35 35 0 33 2 35 35 35 33 0 35 -2 35 -35z m-986
-501 c9 -8 16 -19 16 -24 0 -11 -29 -40 -40 -40 -11 0 -40 29 -40 40 0 11 29
40 40 40 5 0 16 -7 24 -16z m900 0 c9 -8 16 -19 16 -24 0 -11 -29 -40 -40 -40
-11 0 -40 29 -40 40 0 5 7 16 16 24 8 9 19 16 24 16 5 0 16 -7 24 -16z"/>
<path d="M618 968 c-18 -15 -318 -464 -318 -477 0 -5 17 -30 39 -57 49 -62 77
-118 96 -190 l14 -56 -30 -38 c-35 -43 -49 -111 -29 -135 19 -22 481 -22 500
0 20 24 6 92 -29 135 l-30 38 14 56 c19 72 47 128 96 190 22 27 39 52 39 57 0
13 -300 462 -318 477 -9 6 -19 12 -22 12 -3 0 -13 -6 -22 -12z m-53 -401 c-29
-29 -35 -42 -35 -77 0 -34 6 -48 34 -76 28 -28 42 -34 76 -34 60 0 110 50 110
110 0 35 -6 48 -35 77 l-36 36 3 100 3 100 104 -156 103 -156 -26 -32 c-35
-42 -70 -112 -90 -179 l-16 -55 -120 0 -120 0 -16 55 c-20 67 -55 137 -90 179
l-26 32 103 156 104 156 3 -100 3 -100 -36 -36z m99 -53 c9 -8 16 -19 16 -24
0 -11 -29 -40 -40 -40 -11 0 -40 29 -40 40 0 5 7 16 16 24 8 9 19 16 24 16 5
0 16 -7 24 -16z m100 -376 c14 -6 33 -22 41 -35 l15 -23 -180 0 -181 0 15 22
c9 12 26 28 38 35 29 16 218 17 252 1z"/>
</g>
</svg>
